<svg width="20" height="20" viewBox="0 0 20 20" fill="none" xmlns="http://www.w3.org/2000/svg">
<path d="M16.5664 4.27934L16.566 4.27895C16.1393 3.86071 15.6363 3.52834 15.0842 3.29992L15.0836 3.29965C14.5109 3.06176 13.8967 2.93999 13.2765 2.94142L13.2754 2.94142C12.404 2.94142 11.5547 3.18 10.817 3.62998L10.817 3.62999C10.6405 3.73764 10.4732 3.85566 10.315 3.98404L10 4.23951L9.68503 3.98404C9.52675 3.85566 9.35946 3.73764 9.18298 3.62999L9.18296 3.62998C8.44534 3.18 7.59605 2.94142 6.72461 2.94142C6.0962 2.94142 5.48958 3.06157 4.91641 3.29965L4.91587 3.29988C4.36174 3.52929 3.86283 3.85894 3.43384 4.2791L3.43316 4.27976C3.00733 4.69525 2.66716 5.19025 2.43193 5.73672L16.5664 4.27934ZM16.5664 4.27934C16.9919 4.69549 17.3321 5.1906 17.5682 5.73695C17.8128 6.30549 17.9373 6.90763 17.9355 7.52789V7.52931C17.9355 8.11124 17.8167 8.7285 17.572 9.36829L17.5716 9.36942C17.3689 9.90347 17.0698 10.4674 16.6823 11.046C16.0689 11.9604 15.2163 12.9271 14.1433 13.9178C12.3602 15.5627 10.5953 16.6987 10.529 16.7412L10.5289 16.7412L10.067 17.0375C10.0669 17.0376 10.0667 17.0377 10.0666 17.0377C10.0257 17.0636 9.97231 17.0636 9.93143 17.0377C9.93131 17.0377 9.93119 17.0376 9.93107 17.0375L9.46915 16.7412L9.4692 16.7412L9.46127 16.7363L9.46119 16.7362C9.46036 16.7357 9.45261 16.7309 9.43603 16.7202C9.41965 16.7096 9.39684 16.6948 9.36801 16.6759C9.31037 16.638 9.22919 16.5839 9.1278 16.5149C8.925 16.3768 8.64191 16.1791 8.30497 15.9311C7.63034 15.4344 6.74378 14.7388 5.85485 13.9178L5.85479 13.9178C4.7817 12.9271 3.92918 11.9604 3.31579 11.046C2.92889 10.4684 2.63122 9.90399 2.426 9.36829L16.5664 4.27934ZM2.0625 7.52931C2.0625 6.90802 2.18724 6.30535 2.43192 5.73676L2.4259 9.36804C2.18129 8.72834 2.0625 8.11117 2.0625 7.52931Z" stroke="#FF0000"/>
</svg>
