<svg width="20" height="20" viewBox="0 0 20 20" fill="none" xmlns="http://www.w3.org/2000/svg">
<g clip-path="url(#clip0_116_52)">
<path d="M20.0001 10.0612C20.0001 4.50375 15.5226 -0.00125122 10.0001 -0.00125122C4.47506 -1.22076e-06 -0.00244141 4.50375 -0.00244141 10.0625C-0.00244141 15.0837 3.65506 19.2462 8.43506 20.0012V12.97H5.89756V10.0625H8.43756V7.84375C8.43756 5.3225 9.93131 3.93 12.2151 3.93C13.3101 3.93 14.4538 4.12625 14.4538 4.12625V6.60125H13.1926C11.9513 6.60125 11.5638 7.3775 11.5638 8.17375V10.0612H14.3363L13.8938 12.9687H11.5626V20C16.3426 19.245 20.0001 15.0825 20.0001 10.0612Z" fill="#A5B6A4"/>
</g>
<defs>
<clipPath id="clip0_116_52">
<rect width="20" height="20" fill="white"/>
</clipPath>
</defs>
</svg>
