<svg width="20" height="20" viewBox="0 0 20 20" fill="none" xmlns="http://www.w3.org/2000/svg">
<path d="M10 0C15.5138 0 20 3.64 20 8.115C20 9.90625 19.3062 11.5188 17.8563 13.1075C15.7587 15.5225 11.0675 18.4637 10 18.9137C8.9625 19.3512 9.0825 18.6675 9.13 18.3975L9.13375 18.375L9.27625 17.5188C9.31 17.2638 9.345 16.8675 9.24375 16.615C9.13125 16.3363 8.68875 16.1912 8.36375 16.1213C3.5575 15.4875 0 12.1263 0 8.115C0 3.64 4.4875 0 10 0ZM6.2775 9.6075H4.37125V6.1475C4.37125 6.096 4.35088 6.04659 4.31458 6.01005C4.27828 5.97352 4.229 5.95283 4.1775 5.9525H3.475C3.44939 5.9525 3.42404 5.95754 3.40038 5.96734C3.37672 5.97714 3.35522 5.99151 3.33711 6.00961C3.31901 6.02772 3.30464 6.04922 3.29484 6.07288C3.28504 6.09653 3.28 6.12189 3.28 6.1475V10.505C3.28 10.5563 3.30125 10.605 3.335 10.6388V10.64L3.3375 10.6425L3.34 10.645C3.37625 10.6799 3.42471 10.6992 3.475 10.6987H6.2775C6.385 10.6987 6.47125 10.6112 6.47125 10.5037V9.80375C6.47141 9.77814 6.46653 9.75275 6.45689 9.72903C6.44724 9.70531 6.43301 9.68372 6.41502 9.6655C6.39703 9.64727 6.37562 9.63277 6.35203 9.62282C6.32843 9.61287 6.30311 9.60766 6.2775 9.6075ZM7.26625 5.9525C7.21453 5.9525 7.16493 5.97304 7.12836 6.00961C7.09179 6.04618 7.07125 6.09578 7.07125 6.1475V10.505C7.07125 10.6125 7.15875 10.6987 7.26625 10.6987H7.96875C8.07625 10.6987 8.1625 10.6112 8.1625 10.505V6.1475C8.1625 6.096 8.14213 6.04659 8.10583 6.01005C8.06953 5.97352 8.02025 5.95283 7.96875 5.9525H7.26625ZM12.095 5.9525C12.0433 5.9525 11.9937 5.97304 11.9571 6.00961C11.9205 6.04618 11.9 6.09578 11.9 6.1475V8.735L9.90375 6.04C9.8987 6.03344 9.89328 6.02718 9.8875 6.02125V6.02C9.88355 6.01562 9.87938 6.01145 9.875 6.0075L9.87125 6.00375C9.86696 5.99965 9.86237 5.99589 9.8575 5.9925H9.85625L9.85 5.9875L9.84625 5.985C9.8443 5.98354 9.8422 5.98229 9.84 5.98125L9.83 5.975H9.8275L9.82375 5.9725L9.81125 5.9675L9.80625 5.965C9.80216 5.96352 9.79798 5.96227 9.79375 5.96125H9.79125L9.7875 5.96L9.77625 5.9575H9.76875L9.765 5.95625H9.76L9.7575 5.955H9.04C8.9885 5.955 8.93909 5.97537 8.90255 6.01167C8.86602 6.04797 8.84533 6.09725 8.845 6.14875V10.5062C8.845 10.6137 8.9325 10.7 9.04 10.7H9.74C9.84875 10.7 9.93625 10.6125 9.93625 10.5062V7.91875L11.9362 10.6187C11.9495 10.6374 11.9661 10.6534 11.985 10.6663L11.9862 10.6675L11.9987 10.675L12.0037 10.6775C12.007 10.6794 12.0103 10.6811 12.0138 10.6825L12.0225 10.6862L12.0288 10.6887C12.0329 10.6901 12.037 10.6914 12.0413 10.6925H12.045C12.0613 10.6972 12.0781 10.6997 12.095 10.7H12.795C12.9038 10.7 12.9912 10.6125 12.9912 10.5062V6.1475C12.9912 6.09578 12.9707 6.04618 12.9341 6.00961C12.8976 5.97304 12.848 5.9525 12.7963 5.9525H12.095ZM16.8638 6.84875V6.14875C16.8639 6.12314 16.859 6.09775 16.8494 6.07403C16.8397 6.05031 16.8255 6.02872 16.8075 6.0105C16.7895 5.99227 16.7681 5.97777 16.7445 5.96782C16.7209 5.95787 16.6956 5.95266 16.67 5.9525H13.8675C13.8171 5.95256 13.7686 5.97229 13.7325 6.0075H13.7312L13.73 6.01L13.7275 6.01375C13.6926 6.04956 13.6729 6.09749 13.6725 6.1475V10.505C13.6725 10.5563 13.6938 10.605 13.7275 10.6388L13.73 10.6425L13.7325 10.645C13.7688 10.6798 13.8172 10.699 13.8675 10.6987H16.67C16.7775 10.6987 16.8638 10.6112 16.8638 10.5037V9.80375C16.8639 9.77814 16.859 9.75275 16.8494 9.72903C16.8397 9.70531 16.8255 9.68372 16.8075 9.6655C16.7895 9.64727 16.7681 9.63277 16.7445 9.62282C16.7209 9.61287 16.6956 9.60766 16.67 9.6075H14.7625V8.87125H16.6688C16.7763 8.87125 16.8625 8.78375 16.8625 8.67625V7.97625C16.8627 7.95064 16.8578 7.92525 16.8481 7.90153C16.8385 7.87781 16.8243 7.85622 16.8063 7.838C16.7883 7.81977 16.7669 7.80527 16.7433 7.79532C16.7197 7.78537 16.6944 7.78016 16.6688 7.78H14.7625V7.04375H16.6688C16.7763 7.04375 16.8625 6.95625 16.8625 6.84875H16.8638Z" fill="#A5B6A4"/>
</svg>
