<svg width="20" height="20" viewBox="0 0 20 20" fill="none" xmlns="http://www.w3.org/2000/svg">
<g clip-path="url(#clip0_116_58)">
<path d="M10.0637 2.49875H10.175C11.2025 2.5025 16.4087 2.54 17.8125 2.9175C18.2369 3.03271 18.6236 3.25728 18.9339 3.56876C19.2443 3.88024 19.4675 4.26773 19.5812 4.6925C19.7075 5.1675 19.7963 5.79625 19.8563 6.445L19.8688 6.575L19.8962 6.9L19.9063 7.03C19.9875 8.1725 19.9975 9.2425 19.9987 9.47625V9.57C19.9975 9.8125 19.9862 10.955 19.8962 12.145L19.8863 12.2762L19.875 12.4062C19.8125 13.1212 19.72 13.8312 19.5812 14.3537C19.4679 14.7787 19.2448 15.1664 18.9344 15.4779C18.6239 15.7894 18.237 16.0139 17.8125 16.1287C16.3625 16.5187 10.8512 16.5462 10.0875 16.5475H9.91C9.52375 16.5475 7.92625 16.54 6.25125 16.4825L6.03875 16.475L5.93 16.47L5.71625 16.4612L5.5025 16.4525C4.115 16.3912 2.79375 16.2925 2.185 16.1275C1.76061 16.0127 1.37383 15.7885 1.06341 15.4772C0.752979 15.1659 0.529809 14.7785 0.41625 14.3537C0.2775 13.8325 0.185 13.1212 0.1225 12.4062L0.1125 12.275L0.1025 12.145C0.0408095 11.298 0.00662483 10.4492 0 9.6L0 9.44625C0.0025 9.1775 0.0125 8.24875 0.08 7.22375L0.08875 7.095L0.0925 7.03L0.1025 6.9L0.13 6.575L0.1425 6.445C0.2025 5.79625 0.29125 5.16625 0.4175 4.6925C0.530867 4.26756 0.753953 3.87989 1.06439 3.56835C1.37483 3.25682 1.76171 3.03236 2.18625 2.9175C2.795 2.755 4.11625 2.655 5.50375 2.5925L5.71625 2.58375L5.93125 2.57625L6.03875 2.5725L6.2525 2.56375C7.44213 2.52547 8.63226 2.50421 9.8225 2.5H10.0637V2.49875ZM8 6.51125V12.5337L13.1963 9.52375L8 6.51125Z" fill="#A5B6A4"/>
</g>
<defs>
<clipPath id="clip0_116_58">
<rect width="20" height="20" fill="white"/>
</clipPath>
</defs>
</svg>
