<svg width="35" height="35" viewBox="0 0 39 40" fill="none" xmlns="http://www.w3.org/2000/svg">
<path d="M19.5 20C24.8854 20 29.25 15.5234 29.25 10C29.25 4.47656 24.8854 0 19.5 0C14.1146 0 9.75 4.47656 9.75 10C9.75 15.5234 14.1146 20 19.5 20ZM26.325 22.5H25.0529C23.3619 23.2969 21.4805 23.75 19.5 23.75C17.5195 23.75 15.6457 23.2969 13.9471 22.5H12.675C7.02305 22.5 2.4375 27.2031 2.4375 33V36.25C2.4375 38.3203 4.0752 40 6.09375 40H32.9062C34.9248 40 36.5625 38.3203 36.5625 36.25V33C36.5625 27.2031 31.977 22.5 26.325 22.5Z" fill="#B99664"/>
</svg>
