<svg width="25" height="26" viewBox="0 0 25 26" fill="none" xmlns="http://www.w3.org/2000/svg">
<path d="M24.66 21.6178L19.7915 16.7493C19.5717 16.5295 19.2739 16.4075 18.9613 16.4075H18.1654C19.5131 14.6837 20.314 12.5156 20.314 10.157C20.314 4.54623 15.7678 0 10.157 0C4.54623 0 0 4.54623 0 10.157C0 15.7678 4.54623 20.314 10.157 20.314C12.5156 20.314 14.6837 19.5131 16.4074 18.1654V18.9614C16.4074 19.2739 16.5295 19.5717 16.7493 19.7915L21.6178 24.66C22.0768 25.119 22.8191 25.119 23.2732 24.66L24.6551 23.2781C25.1141 22.8191 25.1141 22.0768 24.66 21.6178ZM10.157 16.4075C6.70459 16.4075 3.90654 13.6143 3.90654 10.157C3.90654 6.70459 6.69971 3.90654 10.157 3.90654C13.6094 3.90654 16.4074 6.69971 16.4074 10.157C16.4074 13.6094 13.6143 16.4075 10.157 16.4075Z" fill="black"/>
</svg>
