<svg width="35" height="35" viewBox="0 0 45 45" fill="none" xmlns="http://www.w3.org/2000/svg">
<path d="M41.2594 26.0405L44.9526 9.79055C45.2192 8.61727 44.3274 7.5 43.1242 7.5H12.4381L11.722 3.99922C11.5436 3.12664 10.7758 2.5 9.88508 2.5H1.875C0.839453 2.5 0 3.33945 0 4.375V5.625C0 6.66055 0.839453 7.5 1.875 7.5H7.33461L12.8227 34.3309C11.5098 35.0859 10.625 36.5017 10.625 38.125C10.625 40.5412 12.5837 42.5 15 42.5C17.4163 42.5 19.375 40.5412 19.375 38.125C19.375 36.9005 18.8713 35.7941 18.0606 35H34.4393C33.6287 35.7941 33.125 36.9005 33.125 38.125C33.125 40.5412 35.0838 42.5 37.5 42.5C39.9162 42.5 41.875 40.5412 41.875 38.125C41.875 36.3928 40.8681 34.8959 39.4079 34.1871L39.8389 32.2905C40.1055 31.1173 39.2137 30 38.0105 30H17.0404L16.5291 27.5H39.431C40.3065 27.5 41.0654 26.8942 41.2594 26.0405Z" fill="#B99664"/>
</svg>
