<svg width="23" height="23" viewBox="0 0 23 23" fill="none" xmlns="http://www.w3.org/2000/svg">
<path d="M11.5049 5.88477C8.39941 5.88477 5.89453 8.38965 5.89453 11.4951C5.89453 14.6006 8.39941 17.1055 11.5049 17.1055C14.6104 17.1055 17.1152 14.6006 17.1152 11.4951C17.1152 8.38965 14.6104 5.88477 11.5049 5.88477ZM11.5049 15.1426C9.49805 15.1426 7.85742 13.5068 7.85742 11.4951C7.85742 9.4834 9.49316 7.84766 11.5049 7.84766C13.5166 7.84766 15.1523 9.4834 15.1523 11.4951C15.1523 13.5068 13.5117 15.1426 11.5049 15.1426ZM18.6533 5.65527C18.6533 6.38281 18.0674 6.96387 17.3447 6.96387C16.6172 6.96387 16.0361 6.37793 16.0361 5.65527C16.0361 4.93262 16.6221 4.34668 17.3447 4.34668C18.0674 4.34668 18.6533 4.93262 18.6533 5.65527ZM22.3691 6.9834C22.2861 5.23047 21.8857 3.67773 20.6016 2.39844C19.3223 1.11914 17.7695 0.71875 16.0166 0.630859C14.21 0.52832 8.79492 0.52832 6.98828 0.630859C5.24023 0.713867 3.6875 1.11426 2.40332 2.39355C1.11914 3.67285 0.723633 5.22559 0.635742 6.97852C0.533203 8.78516 0.533203 14.2002 0.635742 16.0068C0.71875 17.7598 1.11914 19.3125 2.40332 20.5918C3.6875 21.8711 5.23535 22.2715 6.98828 22.3594C8.79492 22.4619 14.21 22.4619 16.0166 22.3594C17.7695 22.2764 19.3223 21.876 20.6016 20.5918C21.8809 19.3125 22.2812 17.7598 22.3691 16.0068C22.4717 14.2002 22.4717 8.79004 22.3691 6.9834ZM20.0352 17.9453C19.6543 18.9023 18.917 19.6396 17.9551 20.0254C16.5146 20.5967 13.0967 20.4648 11.5049 20.4648C9.91309 20.4648 6.49023 20.5918 5.05469 20.0254C4.09766 19.6445 3.36035 18.9072 2.97461 17.9453C2.40332 16.5049 2.53516 13.0869 2.53516 11.4951C2.53516 9.90332 2.4082 6.48047 2.97461 5.04492C3.35547 4.08789 4.09277 3.35059 5.05469 2.96484C6.49512 2.39355 9.91309 2.52539 11.5049 2.52539C13.0967 2.52539 16.5195 2.39844 17.9551 2.96484C18.9121 3.3457 19.6494 4.08301 20.0352 5.04492C20.6064 6.48535 20.4746 9.90332 20.4746 11.4951C20.4746 13.0869 20.6064 16.5098 20.0352 17.9453Z" fill="#DCD5CA"/>
</svg>
