<svg width="25" height="25" viewBox="0 0 25 25" fill="none" xmlns="http://www.w3.org/2000/svg">
<path d="M2.34375 10.9375H22.6562C22.8635 10.9375 23.0622 10.8552 23.2087 10.7087C23.3552 10.5622 23.4375 10.3635 23.4375 10.1562V8.59375C23.4375 8.38655 23.3552 8.18784 23.2087 8.04132C23.0622 7.89481 22.8635 7.8125 22.6562 7.8125H2.34375C2.13655 7.8125 1.93784 7.89481 1.79132 8.04132C1.64481 8.18784 1.5625 8.38655 1.5625 8.59375L1.5625 10.1562C1.5625 10.3635 1.64481 10.5622 1.79132 10.7087C1.93784 10.8552 2.13655 10.9375 2.34375 10.9375ZM22.6562 20.3125H2.34375C2.13655 20.3125 1.93784 20.3948 1.79132 20.5413C1.64481 20.6878 1.5625 20.8865 1.5625 21.0938L1.5625 22.6562C1.5625 22.8635 1.64481 23.0622 1.79132 23.2087C1.93784 23.3552 2.13655 23.4375 2.34375 23.4375H22.6562C22.8635 23.4375 23.0622 23.3552 23.2087 23.2087C23.3552 23.0622 23.4375 22.8635 23.4375 22.6562V21.0938C23.4375 20.8865 23.3552 20.6878 23.2087 20.5413C23.0622 20.3948 22.8635 20.3125 22.6562 20.3125ZM22.811 1.5625H10.0015C9.91918 1.56244 9.83769 1.5786 9.76165 1.61006C9.68562 1.64152 9.61653 1.68766 9.55834 1.74584C9.50016 1.80403 9.45402 1.87312 9.42256 1.94915C9.3911 2.02519 9.37494 2.10668 9.375 2.18897V4.06104C9.37494 4.14332 9.3911 4.22481 9.42256 4.30085C9.45402 4.37688 9.50016 4.44597 9.55834 4.50416C9.61653 4.56234 9.68562 4.60848 9.76165 4.63994C9.83769 4.6714 9.91918 4.68756 10.0015 4.6875H22.811C22.8933 4.68756 22.9748 4.6714 23.0508 4.63994C23.1269 4.60848 23.196 4.56234 23.2542 4.50416C23.3123 4.44597 23.3585 4.37688 23.3899 4.30085C23.4214 4.22481 23.4376 4.14332 23.4375 4.06104V2.18897C23.4376 2.10668 23.4214 2.02519 23.3899 1.94915C23.3585 1.87312 23.3123 1.80403 23.2542 1.74584C23.196 1.68766 23.1269 1.64152 23.0508 1.61006C22.9748 1.5786 22.8933 1.56244 22.811 1.5625ZM22.811 14.0625H10.0015C9.91918 14.0624 9.83769 14.0786 9.76165 14.1101C9.68562 14.1415 9.61653 14.1877 9.55834 14.2458C9.50016 14.304 9.45402 14.3731 9.42256 14.4492C9.3911 14.5252 9.37494 14.6067 9.375 14.689V16.561C9.37494 16.6433 9.3911 16.7248 9.42256 16.8008C9.45402 16.8769 9.50016 16.946 9.55834 17.0042C9.61653 17.0623 9.68562 17.1085 9.76165 17.1399C9.83769 17.1714 9.91918 17.1876 10.0015 17.1875H22.811C22.8933 17.1876 22.9748 17.1714 23.0508 17.1399C23.1269 17.1085 23.196 17.0623 23.2542 17.0042C23.3123 16.946 23.3585 16.8769 23.3899 16.8008C23.4214 16.7248 23.4376 16.6433 23.4375 16.561V14.689C23.4376 14.6067 23.4214 14.5252 23.3899 14.4492C23.3585 14.3731 23.3123 14.304 23.2542 14.2458C23.196 14.1877 23.1269 14.1415 23.0508 14.1101C22.9748 14.0786 22.8933 14.0624 22.811 14.0625Z" fill="#B99664"/>
</svg>
