<svg id="圖層_1" data-name="圖層 1" xmlns="http://www.w3.org/2000/svg" viewBox="0 0 1032.18 360"><defs><style>.cls-1{fill:#383430;}.cls-2{fill:#dbd4c9;}.cls-3{fill:#b89564;}</style></defs><path class="cls-1" d="M183.17,359.26H21l-2.59-6.84A271.43,271.43,0,0,1,168.55,6.05l14.62-6Z" transform="translate(-1)"/><path class="cls-2" d="M35.72,338.09H162V32.2A250.31,250.31,0,0,0,35.72,338.09Z" transform="translate(-1)"/><path class="cls-1" d="M125.87,359.26l-3.16-4.53A171.67,171.67,0,0,1,198,98l14.63-6V359.25Z" transform="translate(-1)"/><path class="cls-2" d="M191.47,124.58A150.52,150.52,0,0,0,137,338.09h54.44Z" transform="translate(-1)"/><path class="cls-3" d="M232.8,344.17a99.56,99.56,0,0,1,0-184Z" transform="translate(-1)"/><path class="cls-1" d="M243.38,360,228.75,354a110.15,110.15,0,0,1,0-203.55l14.63-6.05ZM222.22,177.65a89,89,0,0,0,0,149Z" transform="translate(-1)"/><path class="cls-3" d="M261.28,327.61a101.16,101.16,0,0,0,16-34.08q4.32-16.08,4.32-40.34L281.39,231c0-1.41.65-2.11,1.93-2.11l22.72.38h32l22.44-.38a3,3,0,0,1,1.92.38,3.36,3.36,0,0,1,.29,1.73L362.26,247v21.28l.39,15.79c0,1-.16,1.63-.49,1.82s-.77.29-1.72.29L338,285.83H298a213.94,213.94,0,0,1-4.33,21.47q-3.86,14.54-13.57,31.19-2.13,3.56-3.37,3.56-1,0-3.95-3.56A50.4,50.4,0,0,0,261.28,327.61Zm52-159.62q9.15,1.35,18.2,3.37c1.72.39,2.59,1.22,2.59,2.51,0,1-.7,1.82-2.11,2.59a98.12,98.12,0,0,0,21,18,157.87,157.87,0,0,0,21.85,11.17,47.68,47.68,0,0,0-6.55,12.6c-1.09,3.15-2.06,4.72-2.89,4.72s-2.25-.58-4.42-1.73a121.61,121.61,0,0,1-16.56-10.69V220q0,1.64-.39,1.92a3.23,3.23,0,0,1-1.73.29l-13.38-.38H317.4l-13.38.38a1.73,1.73,0,0,1-2.41-2.21V211.7a146.86,146.86,0,0,1-25,18.19q-3.66,1.94-4.52,1.93-1.26,0-3.37-4.52a48.45,48.45,0,0,0-7.32-12.42q29.46-13.57,46.11-36.68A41.76,41.76,0,0,0,313.26,168Zm53.33,177.82c0,1.34-.77,2-2.3,2H349.55c-1.47,0-2.21-.68-2.21-2v-4.53h-32v5.87c0,1.09-.13,1.74-.39,1.93a3.31,3.31,0,0,1-1.73.29H299a2.9,2.9,0,0,1-1.83-.38,5.24,5.24,0,0,1-.19-1.84l.28-23.29V312.59L297,298.06c0-1.09.13-1.74.38-1.93a3.35,3.35,0,0,1,1.74-.29l20.6.39h23.88l20.79-.39a3,3,0,0,1,1.92.39,3.48,3.48,0,0,1,.29,1.83l-.48,12.22V322.7Zm-22.71-73.94V264H300.07l-.58,7.9Zm0-28.88H300.36v7.8h43.52Zm-37.17-36q2,.2,10.69.2h11.46c6.16,0,9.81-.07,11-.2a122.78,122.78,0,0,1-17.52-17.9A151.22,151.22,0,0,1,306.71,207Zm40.63,103.69h-32v16.17h32Zm53.05-121c0,.13-.39,1.57-1.16,4.33q-.57,2.81-.58,21.09v54.39l.2,26.09a3.36,3.36,0,0,1-.34,1.93,2.47,2.47,0,0,1-1.69.38H380.65c-1,0-1.54-.13-1.73-.38a6.05,6.05,0,0,1-.2-1.93l.39-26.09v-54.2q0-19.94-1.45-29.17,10.59.28,20.12,1.35C399.52,187.63,400.39,188.37,400.39,189.65ZM386,325.11q9.91,1,21.28,1c3.46,0,5.81-.61,7-1.83s1.74-3.17,1.74-6.06V199.86q0-17.62-1.64-28.21,11.64.39,21,1.44c2,.2,3,.9,3,2.12a21.75,21.75,0,0,1-1.06,4.34q-1.16,2.4-1.15,19.92v83.47l.38,39.18q0,8.19-1.63,12.42a14.83,14.83,0,0,1-5.49,6.93,27.56,27.56,0,0,1-11,3.95,134.49,134.49,0,0,1-18.77,1q-4.62,0-5.58-1.06c-.52-.57-1.09-2.34-1.73-5.29Q390.08,330.51,386,325.11Z" transform="translate(-1)"/><path class="cls-3" d="M510.8,168.47q10.59.28,19.07,1.26c1.73.19,2.6.76,2.6,1.73a5.67,5.67,0,0,1-1,3,13.91,13.91,0,0,0-1.15,5.49h39.38a79.82,79.82,0,0,0-1.16-11.46q11,.39,19.06,1.26,2.79.28,2.79,1.92a6.06,6.06,0,0,1-1.15,3,11.7,11.7,0,0,0-1.16,5.3H611.8l24.64-.38c1.09,0,1.77.12,2,.38a3.64,3.64,0,0,1,.29,1.83v11.46c0,1-.13,1.63-.38,1.82a3.81,3.81,0,0,1-1.93.29L611.8,195H588.31l.19,3.75a3,3,0,0,1-.39,1.93,3.59,3.59,0,0,1-1.83.29H571.75c-1.16,0-1.86-.16-2.12-.49a3,3,0,0,1-.29-1.73,31.34,31.34,0,0,1,.2-3.75H530.35c.07.9.16,2.15.29,3.75.07.84.09,1.35.09,1.54,0,1.09-.12,1.73-.38,1.93a3.61,3.61,0,0,1-1.83.29h-10a1.52,1.52,0,0,1,.77,1.35,6.88,6.88,0,0,1-.77,2.21,9,9,0,0,0-.77,3.18H523l20.89-.39c1.48,0,2.22.64,2.22,1.93v7.31q0,1.55-.48,1.83a3,3,0,0,1-1.74.29L523,219.78h-5.29v6.36h8.47l23.88-.39c1,0,1.63.13,1.82.39a3.25,3.25,0,0,1,.29,1.73v7.71c0,1-.13,1.63-.38,1.83a3.39,3.39,0,0,1-1.73.28l-21.76-.38v2.21c0,1.86.41,3,1.25,3.37.64.39,2.28.58,4.91.58,3.14,0,5-.26,5.68-.77,1.09-.9,1.64-2.37,1.64-4.43a41,41,0,0,0,8.09,2.41c2.11.38,3.17,1.09,3.17,2.12a11.57,11.57,0,0,1-.29,2,7.93,7.93,0,0,1-3.56,5.48q-3.66,2.41-15.5,2.41-12.62,0-15.21-1.92l-.77-.68c-.38.84-.58,3.15-.58,6.93h2.7l19.35-.38c1,0,1.64.13,1.83.38a3.64,3.64,0,0,1,.29,1.83v6.84q0,1.64-.39,1.92a3.33,3.33,0,0,1-1.73.29H517.16v5.49q12.62-1,31.29-3.27a17.23,17.23,0,0,0-1,4.33q14.14-7.8,20.31-17.62-3.46-2.4-11.65-7.31c-1-.39-1.45-.74-1.45-1.06a5.53,5.53,0,0,1,1.26-1.93l5.87-6.84c.77-1,1.44-1.44,2-1.44a4.72,4.72,0,0,1,1.93.67c1.86,1,4.42,2.47,7.7,4.53a83.89,83.89,0,0,0,2.21-13.19q-8,.09-13.38.38c-.57,0-1.51.07-2.79.2h-1c-1.09,0-1.73-.13-1.93-.39a3.59,3.59,0,0,1-.29-1.83v-11c0-1.09.14-1.74.39-1.93a3.65,3.65,0,0,1,1.83-.28l11,.28q3.36,0,6.54-.09a82.38,82.38,0,0,0-1.16-13c5.84.19,10.89.51,15.12,1q4.34.58,4.33,2.22a13.8,13.8,0,0,1-1.15,3.56,19.92,19.92,0,0,0-1,6.26l9.25-.19,16.74-.39a2.13,2.13,0,0,1,2.42,2.41q-.21,6.45-.2,18.1.48,16.85,1.16,22.14,2.1,14.82,6.16,14.82c1.16,0,2.05-1.41,2.69-4.23a138.94,138.94,0,0,0,1.83-14.83,48.9,48.9,0,0,0,9.63,6c1.79.9,2.7,2,2.7,3.27a24.61,24.61,0,0,1-.39,3.47q-2,15.12-6.83,20.6-3.57,4.05-10.31,4A16.21,16.21,0,0,1,614,285q-3.75-4.62-6.35-13.86-4.15-14.53-4.14-41l-11.84.19a105.38,105.38,0,0,1-4.34,22.43,165.41,165.41,0,0,1,14.83,12.42c.9,1,1.35,1.58,1.35,1.83,0,.51-.49,1.22-1.45,2.12l-6.83,7.7c-1,1.22-1.77,1.83-2.21,1.83s-1-.39-1.74-1.15q-7.12-7.12-10.88-10.5a68.81,68.81,0,0,1-16.17,16.46q-3.37,2.79-4.72,2.79c-.9,0-2.34-1.18-4.33-3.56a31.68,31.68,0,0,0-7.9-6.83l-.19,1.92c-.19,2.06-.58,3.28-1.15,3.66a12.3,12.3,0,0,1-4.14.87q-21.76,2.5-62.39,6a24.32,24.32,0,0,0-6.45,1,24.47,24.47,0,0,1-3.37,1c-1.22,0-2.08-.86-2.6-2.6a111.78,111.78,0,0,1-2.89-12.32c3.85.19,7.26.29,10.21.29s6.2-.1,9.92-.29q11-.39,16.56-.77v-6.55h-2.6l-19.17.39a1.67,1.67,0,0,1-2.3-2.12v-7.7l-1.84.67a10.42,10.42,0,0,0-1.34.48,15.85,15.85,0,0,1-3.75,1q-1.37,0-3.37-3.76a31.17,31.17,0,0,0-4.91-6.93q13.75-3.66,21.27-10.59l1.83-2q-8.56.09-15,.29-.77,0-3.27.09h-1.06c-1.16,0-1.83-.13-2-.38a2.59,2.59,0,0,1-.39-1.73v-7.71c0-1,.17-1.63.48-1.83a3.93,3.93,0,0,1,1.93-.29l23.49.39H500.6v-6.36h-5l-21.07.39c-1,0-1.64-.13-1.84-.39a3.31,3.31,0,0,1-.29-1.73v-7.31c0-1.29.71-1.93,2.13-1.93l21.07.39h5a78.11,78.11,0,0,0-1.06-8.48q7.71.3,12,.78v-1.26l.19-5.29H490.68l-24.83.38c-1.29,0-1.93-.7-1.93-2.11V181.76c0-1.48.64-2.21,1.93-2.21l24.83.38H512A75.91,75.91,0,0,0,510.8,168.47ZM490.11,318.76l-24.65.38a3.08,3.08,0,0,1-1.92-.38,3.27,3.27,0,0,1-.29-1.74v-9.53c0-1,.15-1.64.48-1.83a3,3,0,0,1,1.73-.29l24.65.39H611.6l24.65-.39a3.24,3.24,0,0,1,2,.39,3.31,3.31,0,0,1,.29,1.73V317a2.84,2.84,0,0,1-.34,1.78c-.22.23-.88.34-2,.34l-24.65-.38H597.55a146.85,146.85,0,0,1,24.83,21.08,2.79,2.79,0,0,1,.78,1.54c0,.64-.64,1.25-1.93,1.83L610,348.79a5.75,5.75,0,0,1-2.3.77q-.78,0-1.83-1.35-4.73-5.58-7.51-8.37-58.16,4.91-109,6.54c-3.79,0-6.23.33-7.32,1a6,6,0,0,1-3,1c-.95,0-1.72-1-2.3-3a146.22,146.22,0,0,1-3.37-15.3q8.76.48,15.11.48c1.48,0,3.27,0,5.4-.1h11.64q4.33-5.67,8.09-11.64Zm6.74-78.47c1.16.65,1.73,1.29,1.73,1.93a2.44,2.44,0,0,1-1.35,2,13.44,13.44,0,0,0-3.94,3,54.78,54.78,0,0,1-13,9.44q4.32.39,17.91.38H501a66.77,66.77,0,0,0-.87-12.61q10.11.49,15,1.16a25.14,25.14,0,0,1-.2-3.76v-4.52H491.65Zm21.28,60-27.25.39q-1.54,0-1.83-.39a3.33,3.33,0,0,1-.29-1.73v-8.19c0-1.28.7-1.92,2.12-1.92l27.25.38h65.65l27.15-.38c1.47,0,2.22.64,2.22,1.92v8.19a2.94,2.94,0,0,1-.34,1.78,3.1,3.1,0,0,1-1.88.34l-27.15-.39Zm8.46,29.55q35-1.14,58-2.78l-5.49-4c-1.09-.64-1.63-1.16-1.63-1.55s.74-1,2.21-1.82l1.74-1H534.29Q530.93,324,526.59,329.82Z" transform="translate(-1)"/><path class="cls-3" d="M843,322.32q-3.84,5.58-5.48,14.82c-.52,3.28-1.12,5.17-1.83,5.68s-2.34.84-5.29,1q-36,2-69.22,2-32.44,0-47.08-6.17a42,42,0,0,1-19.93-16.74q-5.88,5.48-19,15.59a15.48,15.48,0,0,0-4.14,4.14c-.84,1.47-1.84,2.22-3,2.22s-2-.81-3-2.41q-3.36-6.65-7.6-17.52a87.23,87.23,0,0,0,11.74-6.36,107,107,0,0,0,14.64-11.26V280.15h-8.28l-13.19.38c-1,0-1.67-.15-1.93-.48a3.88,3.88,0,0,1-.29-1.92V263.78a3.5,3.5,0,0,1,.39-2.12,3.65,3.65,0,0,1,1.83-.28l13.19.38h11.65l13.76-.38c1.09,0,1.74.16,1.93.48a3.77,3.77,0,0,1,.29,1.92L702.88,279v28.12q5.08,10.2,17.9,15.21,12.22,4.51,37.55,4.52Q797.8,326.84,843,322.32Z" transform="translate(-1)"/><path class="cls-3" d="M674.28,215.07a171.16,171.16,0,0,1,27.63,18.29c.77.84,1.16,1.44,1.16,1.83a4.24,4.24,0,0,1-1.16,2.31L694.21,248c-1,1.29-1.77,1.93-2.41,1.93a3,3,0,0,1-1.73-1q-15.41-13.29-27.15-19.45c-.83-.51-1.25-1-1.25-1.54a4.19,4.19,0,0,1,1-2l7.71-9.73c1.08-1.15,1.89-1.73,2.4-1.73A3.26,3.26,0,0,1,674.28,215.07Z" transform="translate(-1)"/><path class="cls-3" d="M677.84,173.48a175,175,0,0,1,26.48,17.14c.77.57,1.15,1.09,1.15,1.53a5.51,5.51,0,0,1-1.25,2.41l-7.61,10.88c-1.08,1.29-1.89,1.93-2.4,1.93a3.3,3.3,0,0,1-1.83-1,137.9,137.9,0,0,0-26-18.57c-.84-.39-1.26-.78-1.26-1.16a5,5,0,0,1,1.26-2.31l7.31-9.53c1-1.28,1.86-1.93,2.5-1.93A3.78,3.78,0,0,1,677.84,173.48Z" transform="translate(-1)"/><path class="cls-3" d="M799.24,179.93l26.58-.38c1.08,0,1.72.12,1.92.38a3.64,3.64,0,0,1,.29,1.83l-.39,27.73v69.12l.39,27.82c0,1.29-.74,1.93-2.21,1.93L799.24,308H744.85l-26.57.39c-1.48,0-2.22-.64-2.22-1.93l.39-27.82V209.49l-.39-27.73a3,3,0,0,1,.39-1.93,3.62,3.62,0,0,1,1.83-.28l26.57.38Zm-63.83,17.52v93h73.27v-93Z" transform="translate(-1)"/><path class="cls-3" d="M779.6,213.34l15.12-.49c1.09,0,1.73.14,1.92.39a3.5,3.5,0,0,1,.29,1.83l-.38,16.56V255.5l.38,16.27a3.58,3.58,0,0,1-.34,2c-.22.26-.84.39-1.87.39l-15.12-.39H764.39l-14.92.39c-1.1,0-1.74-.16-1.93-.48a4,4,0,0,1-.28-1.93l.38-16.27V231.63l-.38-16.56c0-1.09.12-1.73.38-1.93a3.64,3.64,0,0,1,1.83-.29l14.92.49Z" transform="translate(-1)"/><path class="cls-3" d="M851.81,333.58q10.59-15.79,14-39.66,3-19.35,3-61.14l-.38-45.44c0-1.09.12-1.73.38-1.92a3.23,3.23,0,0,1,1.73-.29l26.28.38h42.17v-2q0-11-1.35-15.5,9.15,0,20.7,1c2.25.2,3.37.9,3.37,2.12a2.85,2.85,0,0,1-.58,1.54c-.45.84-.74,1.38-.86,1.64-.65,1.54-1,4.62-1,9.24v2h43.61l26-.38a3.16,3.16,0,0,1,1.93.38,3.38,3.38,0,0,1,.29,1.74v13.28c0,1.09-.17,1.77-.49,2s-.77.29-1.73.29l-26-.38H887.52v31.38q0,45.63-3.37,67.2-3.75,24.84-14.44,43.13c-1.48,2.63-2.56,3.95-3.27,3.95s-1.9-1.13-3.56-3.37A55.59,55.59,0,0,0,851.81,333.58Zm96-36.29q9.44,13.86,17.9,35.52a5.16,5.16,0,0,1,.49,1.54c0,.64-.87,1.38-2.6,2.22l-10.11,4.71a7,7,0,0,1-2.21,1c-.45,0-.91-.64-1.36-1.92q-3.07-8.67-4.91-12.61-22.43,7-43.61,12-5.77,1.83-7.6,3.37a8.46,8.46,0,0,1-3.18,1.54c-.83,0-1.64-.87-2.4-2.6q-2.61-6.93-5.69-17.71a140.68,140.68,0,0,0,16.18-1.93V246.84l-.39-21.76c0-1.28.52-1.92,1.55-1.92l16.36.38h3.56v-.77A75.89,75.89,0,0,0,918.52,207q10.79.3,18.39,1.25c2.12.2,3.18.84,3.18,1.93a13.58,13.58,0,0,1-1.16,3.56c-.71,1.29-1.06,4.17-1.06,8.66v1.16h2l16.93-.38a3.54,3.54,0,0,1,2.13.38,3.64,3.64,0,0,1,.29,1.83l-.39,19.35v25.22l.39,19.55c0,1-.17,1.64-.49,1.83a4,4,0,0,1-1.93.28l-16.93-.38H916.21v27.63q11.85-2.88,21.85-5.58L932.77,304a4,4,0,0,1-.67-1.63c0-.45.67-1,2-1.73l9.53-4.14a7.34,7.34,0,0,1,2.31-.68C946.47,295.84,947.08,296.32,947.79,297.29Zm-6.36-59.5H916.21v12.42h25.22Zm0,39.28V264H916.21v13.1Zm49.3,37h2.88q12.23,0,16.95-3.18,4.32-3,4.33-9.63a25,25,0,0,0-4.62-14.73q-5.4-7.61-18.1-15.79a242.23,242.23,0,0,0,17.91-39.27H988.23V318l.37,29.94c0,1-.15,1.67-.47,1.93a3,3,0,0,1-1.74.29h-14q-1.92,0-1.92-2.22l.38-28.78V245.59l-.38-29.27c0-1.47.64-2.22,1.92-2.22l15.6.39h25.61a10.15,10.15,0,0,0,4.14-.58,10.61,10.61,0,0,1,2.59-.77c1.29,0,3.76,1.71,7.42,5.1q4.82,4.53,4.81,7.13a6.15,6.15,0,0,1-1.82,3.76,20.94,20.94,0,0,0-3,5.29q-8.47,20.42-15.31,32.35,13.29,9.44,17.81,20.41a42.08,42.08,0,0,1,2.89,16.46q0,14.44-8.57,21.37-7.32,5.88-21.66,6.93a33.7,33.7,0,0,1-3.46.29,2.84,2.84,0,0,1-2.8-1.34,21.41,21.41,0,0,1-1.25-4.43C994.42,320.68,992.84,316.54,990.73,314Z" transform="translate(-1)"/></svg>