<svg width="23" height="23" viewBox="0 0 23 23" fill="none" xmlns="http://www.w3.org/2000/svg">
<path d="M13.8486 8.97071V12.4424C13.8486 12.5303 13.7803 12.5986 13.6924 12.5986H13.1358C13.082 12.5986 13.0332 12.5693 13.0088 12.5352L11.417 10.3867V12.4473C11.417 12.5352 11.3486 12.6035 11.2608 12.6035H10.7041C10.6162 12.6035 10.5479 12.5352 10.5479 12.4473V8.9756C10.5479 8.88771 10.6162 8.81935 10.7041 8.81935H11.2559C11.3047 8.81935 11.3584 8.84376 11.3828 8.88771L12.9746 11.0361V8.9756C12.9746 8.88771 13.043 8.81935 13.1309 8.81935H13.6875C13.7754 8.81446 13.8486 8.88771 13.8486 8.97071ZM9.84474 8.81446H9.2881C9.20021 8.81446 9.13185 8.88282 9.13185 8.97071V12.4424C9.13185 12.5303 9.20021 12.5986 9.2881 12.5986H9.84474C9.93263 12.5986 10.001 12.5303 10.001 12.4424V8.97071C10.001 8.88771 9.93263 8.81446 9.84474 8.81446ZM8.50196 11.7246H6.98341V8.97071C6.98341 8.88282 6.91505 8.81446 6.82716 8.81446H6.27052C6.18263 8.81446 6.11427 8.88282 6.11427 8.97071V12.4424C6.11427 12.4863 6.12892 12.5205 6.15821 12.5498C6.18751 12.5742 6.22169 12.5938 6.26564 12.5938H8.49708C8.58497 12.5938 8.65333 12.5254 8.65333 12.4375V11.8809C8.65333 11.7979 8.58497 11.7246 8.50196 11.7246ZM16.7783 8.81446H14.5469C14.4639 8.81446 14.3906 8.88282 14.3906 8.97071V12.4424C14.3906 12.5254 14.459 12.5986 14.5469 12.5986H16.7783C16.8662 12.5986 16.9346 12.5303 16.9346 12.4424V11.8858C16.9346 11.7979 16.8662 11.7295 16.7783 11.7295H15.2598V11.1436H16.7783C16.8662 11.1436 16.9346 11.0752 16.9346 10.9873V10.4258C16.9346 10.3379 16.8662 10.2695 16.7783 10.2695H15.2598V9.6836H16.7783C16.8662 9.6836 16.9346 9.61524 16.9346 9.52735V8.97071C16.9297 8.88771 16.8613 8.81446 16.7783 8.81446ZM22.4375 4.55177V18.4824C22.4326 20.6699 20.6406 22.4424 18.4483 22.4375H4.51759C2.33009 22.4326 0.557627 20.6358 0.56251 18.4483V4.51759C0.567393 2.33009 2.36427 0.557627 4.55177 0.56251H18.4824C20.6699 0.567393 22.4424 2.35938 22.4375 4.55177ZM19.4297 10.5381C19.4297 6.97364 15.8555 4.07325 11.4658 4.07325C7.07618 4.07325 3.50196 6.97364 3.50196 10.5381C3.50196 13.7315 6.33399 16.4072 10.1621 16.915C11.0947 17.1152 10.9873 17.457 10.7774 18.7119C10.7432 18.9121 10.6162 19.4981 11.4658 19.1416C12.3154 18.7852 16.0508 16.4414 17.7256 14.5176C18.8779 13.2481 19.4297 11.9639 19.4297 10.5381Z" fill="#DCD5CA"/>
</svg>
