<svg width="36" height="35" viewBox="0 0 36 35" fill="none" xmlns="http://www.w3.org/2000/svg">
<g clip-path="url(#clip0_627_202)">
<path d="M18.1968 0C22.8381 0 27.2893 1.84374 30.5712 5.12563C33.8531 8.40752 35.6968 12.8587 35.6968 17.5C35.6968 22.1413 33.8531 26.5925 30.5712 29.8744C27.2893 33.1563 22.8381 35 18.1968 35C13.5555 35 9.10436 33.1563 5.82247 29.8744C2.54058 26.5925 0.696838 22.1413 0.696838 17.5C0.696838 12.8587 2.54058 8.40752 5.82247 5.12563C9.10436 1.84374 13.5555 0 18.1968 0ZM10.5406 16.4062C10.2505 16.4062 9.97231 16.5215 9.76719 16.7266C9.56207 16.9317 9.44684 17.2099 9.44684 17.5C9.44684 17.7901 9.56207 18.0683 9.76719 18.2734C9.97231 18.4785 10.2505 18.5938 10.5406 18.5938H23.2128L18.5162 23.2881C18.4145 23.3898 18.3339 23.5105 18.2788 23.6434C18.2238 23.7763 18.1955 23.9187 18.1955 24.0625C18.1955 24.2063 18.2238 24.3487 18.2788 24.4816C18.3339 24.6145 18.4145 24.7352 18.5162 24.8369C18.6179 24.9386 18.7386 25.0192 18.8715 25.0743C19.0044 25.1293 19.1468 25.1576 19.2906 25.1576C19.4344 25.1576 19.5768 25.1293 19.7097 25.0743C19.8425 25.0192 19.9633 24.9386 20.065 24.8369L26.6275 18.2744C26.7293 18.1728 26.8101 18.0521 26.8653 17.9192C26.9204 17.7863 26.9488 17.6439 26.9488 17.5C26.9488 17.3561 26.9204 17.2137 26.8653 17.0808C26.8101 16.9479 26.7293 16.8272 26.6275 16.7256L20.065 10.1631C19.9633 10.0614 19.8425 9.98077 19.7097 9.92573C19.5768 9.87069 19.4344 9.84237 19.2906 9.84237C19.1468 9.84237 19.0044 9.87069 18.8715 9.92573C18.7386 9.98077 18.6179 10.0614 18.5162 10.1631C18.4145 10.2648 18.3339 10.3855 18.2788 10.5184C18.2238 10.6513 18.1955 10.7937 18.1955 10.9375C18.1955 11.0813 18.2238 11.2237 18.2788 11.3566C18.3339 11.4895 18.4145 11.6102 18.5162 11.7119L23.2128 16.4062H10.5406Z" fill="#DCD5CA"/>
</g>
<defs>
<clipPath id="clip0_627_202">
<rect width="35" height="35" fill="white" transform="translate(0.696838)"/>
</clipPath>
</defs>
</svg>
