<svg width="183" height="203" viewBox="0 0 183 203" fill="none" xmlns="http://www.w3.org/2000/svg">
<path d="M91.5 107.5C120.38 107.5 143.786 83.4385 143.786 53.75C143.786 24.0615 120.38 0 91.5 0C62.6203 0 39.2143 24.0615 39.2143 53.75C39.2143 83.4385 62.6203 107.5 91.5 107.5ZM128.1 120.938H121.278C112.21 125.221 102.121 127.656 91.5 127.656C80.8795 127.656 70.8308 125.221 61.7217 120.938H54.9C24.5906 120.938 0 146.217 0 177.375V194.844C0 205.972 8.78237 215 19.6071 215H163.393C174.218 215 183 205.972 183 194.844V177.375C183 146.217 158.409 120.938 128.1 120.938Z" fill="#B99664"/>
</svg>
